<svg width="440" height="640" viewBox="0 0 440 640" fill="none" xmlns="http://www.w3.org/2000/svg">
  <defs>
    <linearGradient id="bg" x1="40" y1="24" x2="400" y2="612" gradientUnits="userSpaceOnUse">
      <stop stop-color="#F7FBFC"/>
      <stop offset="1" stop-color="#E7F1F4"/>
    </linearGradient>
    <linearGradient id="skin" x1="220" y1="160" x2="220" y2="492" gradientUnits="userSpaceOnUse">
      <stop stop-color="#C79269"/>
      <stop offset="1" stop-color="#D9B08A"/>
    </linearGradient>
    <linearGradient id="accent" x1="90" y1="110" x2="344" y2="522" gradientUnits="userSpaceOnUse">
      <stop stop-color="#2F5F68" stop-opacity="0.96"/>
      <stop offset="1" stop-color="#17353D" stop-opacity="0.92"/>
    </linearGradient>
    <clipPath id="portraitMask">
      <rect x="86" y="64" width="268" height="248" rx="42" />
    </clipPath>
  </defs>
  <rect x="18" y="18" width="404" height="604" rx="36" fill="url(#bg)"/>
  <rect x="38" y="38" width="364" height="564" rx="30" fill="#FFFFFF" fill-opacity="0.72" stroke="#D7E5EA"/>
  <rect x="86" y="64" width="268" height="248" rx="42" fill="#E8EFF2"/>
  <image href="../uploads/avatars/c5effb5878c84e368e1b598cf9b76fd7.jpeg" x="86" y="64" width="268" height="248" preserveAspectRatio="xMidYMid slice" clip-path="url(#portraitMask)" opacity="0.82" />
  <circle cx="220" cy="390" r="118" fill="url(#accent)" opacity="0.18"/>
  <ellipse cx="220" cy="392" rx="104" ry="124" fill="url(#skin)"/>
  <circle cx="220" cy="232" r="54" fill="url(#skin)"/>
  <rect x="195" y="274" width="50" height="30" rx="15" fill="url(#skin)"/>
  <path d="M145 324C145 300.804 163.804 282 187 282H253C276.196 282 295 300.804 295 324V366C295 389.196 276.196 408 253 408H187C163.804 408 145 389.196 145 366V324Z" fill="#F6FBFC" fill-opacity="0.54"/>
  <path d="M164 414C164 399.641 175.641 388 190 388H250C264.359 388 276 399.641 276 414V520C276 538.778 260.778 554 242 554H198C179.222 554 164 538.778 164 520V414Z" fill="url(#accent)" fill-opacity="0.78"/>
  <rect x="126" y="430" width="52" height="120" rx="26" fill="url(#skin)"/>
  <rect x="262" y="430" width="52" height="120" rx="26" fill="url(#skin)"/>
  <rect x="176" y="548" width="34" height="18" rx="9" fill="#17353D" fill-opacity="0.78"/>
  <rect x="230" y="548" width="34" height="18" rx="9" fill="#17353D" fill-opacity="0.78"/>
  <text x="54" y="572" fill="#203540" font-family="Segoe UI, sans-serif" font-size="28" font-weight="700">Teste IA Avatar</text>
  <text x="54" y="602" fill="#5C717B" font-family="Segoe UI, sans-serif" font-size="18">Avatar 2D • athletic</text>
</svg>